{"title":"Outlander.2008.SWESUB.DVDRip.XviD.AC3.(5.1).-Zen_Bud","uid":5599260,"size":1471872330,"categoryP":"video","categoryS":"movies","magnet":"?xt=urn:btih:4ccff6ac63942191ea00e94a7ceb253e395757c7&amp;dn=Outlander.2008.SWESUB.DVDRip.XviD.AC3.%285.1%29.-Zen_Bud&amp;tr=udp%3A%2F%2Ftracker.openbittorrent.com%3A80&amp;tr=udp%3A%2F%2Fopen.demonii.com%3A1337&amp;tr=udp%3A%2F%2Ftracker.coppersurfer.tk%3A6969&amp;tr=udp%3A%2F%2Fexodus.desync.com%3A6969","seeders":1,"leechers":0,"uploader":"Zen_Bud","files":1,"time":1275207911,"description":"General\nComplete name                    : Outlander.avi\nFormat                           : AVI\nFile size                        : 1.37 GiB\nDuration                         : 1h 50mn\nOverall bit rate                 : 1 779 Kbps\n\nVideo\nID                               : 0\nFormat                           : MPEG-4 Visual\nCodec ID/Hint                    : XviD\nDuration                         : 1h 50mn\nBit rate                         : 1 320 Kbps\nWidth                            : 720 pixels\nHeight                           : 436 pixels\nDisplay aspect ratio             : 2.35:1\nChroma subsampling               : 4:2:0\nBit depth                        : 8 bits\nScan type                        : Progressive\nBits/(Pixel*Frame)               : 0.168\nStream size                      : 1.02 GiB (74%)\nWriting library                  : XviD 1.1.2 (UTC 2006-11-01)\n\nAudio\nID                               : 1\nFormat                           : AC-3\nCodec ID                         : 2000\nDuration                         : 1h 50mn\nBit rate                         : 448 Kbps\nChannel(s)                       : 6 channels\nChannel positions                : Front: L C R, Side: L R, LFE\nSampling rate                    : 48.0 KHz\nStream size                      : 354 MiB (25%)B\n\n\n","torrent":{"xt":"urn:btih:4ccff6ac63942191ea00e94a7ceb253e395757c7","amp;dn":"Outlander.2008.SWESUB.DVDRip.XviD.AC3.%285.1%29.-Zen_Bud","amp;tr":["udp%3A%2F%2Ftracker.openbittorrent.com%3A80","udp%3A%2F%2Fopen.demonii.com%3A1337","udp%3A%2F%2Ftracker.coppersurfer.tk%3A6969","udp%3A%2F%2Fexodus.desync.com%3A6969"],"infoHash":"4ccff6ac63942191ea00e94a7ceb253e395757c7","infoHashBuffer":{"type":"Buffer","data":[76,207,246,172,99,148,33,145,234,0,233,74,124,235,37,62,57,87,87,199]},"announce":[],"urlList":[]}}